<svg xmlns="http://www.w3.org/2000/svg" width="1087" height="324" viewBox="0 0 1087 324">
  <g fill="none" fill-rule="evenodd" class="woody-logo-white">
    <g fill="#FFF" fill-rule="nonzero" class="woody-logo-white__woody-logo" transform="translate(-10)">
      <g class="woody-logo-white__woody-logo__baseline" transform="translate(82 290)">
        <g class="woody-logo-white__woody-logo__baseline__builder" transform="translate(489)">
          <path d="M-1.13686838e-13,5.68434189e-14 L6.94266055,5.68434189e-14 C10.2041284,5.68434189e-14 12.5642202,0.47972973 14.0229358,1.43918919 C15.4816514,2.39864865 16.2110092,3.91216216 16.2110092,5.97972973 C16.2610127,7.26664895 15.827567,8.52672357 14.9931193,9.52027027 C14.0600046,10.5144945 12.8009825,11.1553811 11.4357798,11.3310811 L11.4357798,11.4932432 C15.1651376,12.1193694 17.0321101,14.045045 17.0366972,17.2702703 C17.1377911,19.2043326 16.3131765,21.0737708 14.8073394,22.3243243 C13.3211009,23.536036 11.2431193,24.1418919 8.5733945,24.1418919 L-1.13686838e-13,24.1418919 L-1.13686838e-13,5.68434189e-14 Z M2.86238532,10.3378378 L7.56880734,10.3378378 C9.58256881,10.3378378 11.0344037,10.027027 11.9243119,9.40540541 C12.8050459,8.78378378 13.2522936,7.73648649 13.2522936,6.25675676 C13.3453342,5.08844794 12.7769922,3.9644572 11.7729358,3.33108108 C10.7821101,2.73198198 9.21100917,2.43243243 7.05963303,2.43243243 L2.86238532,2.43243243 L2.86238532,10.3378378 Z M2.86238532,12.7162162 L2.86238532,21.75 L7.98853211,21.75 C9.97018349,21.75 11.4633028,21.3716216 12.4678899,20.6148649 C13.4724771,19.8581081 13.9747706,18.6779279 13.9747706,17.0743243 C14.0737692,15.7859876 13.4916461,14.5380893 12.4334862,13.7702703 C11.4059633,13.0675676 9.84633028,12.7162162 7.75458716,12.7162162 L2.86238532,12.7162162 Z" class="woody-logo-white__woody-logo__baseline__builder__shape"/>
          <path d="M68.0779817,5.68434189e-14 L68.0779817,15.6216216 C68.0779817,18.3738739 67.2316514,20.536036 65.5389908,22.1081081 C63.8463303,23.6801802 61.5206422,24.4684685 58.5619266,24.472973 C55.603211,24.472973 53.309633,23.6801802 51.6811927,22.0945946 C50.0527523,20.509009 49.2431193,18.3288288 49.2522165,15.5540541 L49.2522165,0.0135135135 L52.1077982,0.0135135135 L52.1077982,15.7702703 C52.1077982,17.7837838 52.6697248,19.3288288 53.793578,20.4054054 C54.9082569,21.4864865 56.5458716,22.027027 58.733945,22.027027 C60.9220183,22.027027 62.4082569,21.4797297 63.5504587,20.3986486 C64.6926606,19.3175676 65.2362385,17.7567568 65.2362385,15.7364865 L65.2362385,5.68434189e-14 L68.0779817,5.68434189e-14 Z" class="woody-logo-white__woody-logo__baseline__builder__path"/>
          <polygon points="101.787 24.142 101.787 0 104.649 0 104.649 24.142" class="woody-logo-white__woody-logo__baseline__builder__path"/>
          <polygon points="138.592 24.142 138.592 0 141.454 0 141.454 21.622 152.298 21.622 152.298 24.162" class="woody-logo-white__woody-logo__baseline__builder__path"/>
          <path d="M203.291284,11.8378378 C203.291284,15.8243243 202.190367,18.8716216 199.988532,20.9797297 C197.786697,23.0878378 194.619266,24.1418919 190.486239,24.1418919 L183.681193,24.1418919 L183.681193,5.68434189e-14 L191.174312,5.68434189e-14 C195,5.68434189e-14 197.981651,1.04054054 200.119266,3.12162162 C202.256881,5.2027027 203.31422,8.10810811 203.291284,11.8378378 Z M200.263761,11.9391892 C200.263761,8.78603604 199.461009,6.41441441 197.855505,4.82432432 C196.25,3.23423423 193.860092,2.43693694 190.68578,2.43243243 L186.557339,2.43243243 L186.557339,21.7162162 L190.038991,21.7162162 C193.447248,21.7162162 196.006881,20.8918919 197.71789,19.2432432 C199.428899,17.5945946 200.277523,15.1599099 200.263761,11.9391892 L200.263761,11.9391892 Z" class="woody-logo-white__woody-logo__baseline__builder__shape"/>
          <polygon points="249.661 24.142 235.954 24.142 235.954 0 249.661 0 249.661 2.493 238.817 2.493 238.817 10.27 249.007 10.27 249.007 12.75 238.817 12.75 238.817 21.628 249.661 21.628" class="woody-logo-white__woody-logo__baseline__builder__path"/>
          <path d="M285.192661,14.1013514 L285.192661,24.1418919 L282.330275,24.1418919 L282.330275,5.68434189e-14 L289.073394,5.68434189e-14 C292.087156,5.68434189e-14 294.31422,0.567567568 295.754587,1.7027027 C297.199541,2.83783784 297.915138,4.54054054 297.915138,6.82432432 C297.915138,10.0135135 296.268349,12.1689189 292.974771,13.2905405 L299.649083,24.1418919 L296.270642,24.1418919 L290.318807,14.1013514 L285.192661,14.1013514 Z M285.192661,11.6891892 L289.107798,11.6891892 C291.12156,11.6891892 292.600917,11.2972973 293.545872,10.5135135 C294.525334,9.59783475 295.031088,8.29663616 294.922018,6.97297297 C294.922018,5.37162162 294.447248,4.22297297 293.483945,3.52027027 C292.520642,2.81756757 290.993119,2.45945946 288.873853,2.45945946 L285.158257,2.45945946 L285.192661,11.6891892 Z" class="woody-logo-white__woody-logo__baseline__builder__shape"/>
        </g>
        <g class="woody-logo-white__woody-logo__baseline__wordpress">
          <path d="M24.3432131,24.5202703 L21.5269836,24.5202703 L16.574541,8.35810811 C16.341,7.64189189 16.0731148,6.73648649 15.784623,5.65540541 C15.5895821,5.01055448 15.4381365,4.35371399 15.3312787,3.68918919 C15.0444792,5.30247808 14.6521393,6.89587926 14.1567049,8.45945946 L9.3485082,24.527027 L6.52540984,24.527027 L7.10542736e-15,0.385135135 L3.02229508,0.385135135 L6.89632787,15.2972973 C7.38682124,17.1680596 7.77886693,19.0624695 8.07090164,20.972973 C8.37787628,18.9734477 8.83709144,16.9994268 9.44467213,15.0675676 L13.8407377,0.385135135 L16.8630328,0.385135135 L21.4789016,15.1959459 C22.0632435,17.090399 22.5221291,19.0201206 22.8526721,20.972973 C23.1392106,19.047751 23.5429084,17.1411728 24.0615902,15.2635135 L27.9218852,0.398648649 L30.9441803,0.398648649 L24.3432131,24.5202703 Z" class="woody-logo-white__woody-logo__baseline__wordpress__path"/>
          <path d="M83.2092787 12.4189189C83.2092787 16.2747748 82.2155847 19.3130631 80.2281967 21.5337838 78.2408087 23.7545045 75.4795301 24.8603604 71.9443607 24.851406 68.3313443 24.851406 65.5425902 23.7635135 63.5780984 21.5878378 61.6136066 19.4121622 60.6313607 16.3445946 60.6313607 12.3851351 60.6313607 8.4527027 61.6158962 5.40540541 63.5849672 3.24324324 65.5540383 1.08108108 68.3519508-1.77635684e-14 71.9787049-1.77635684e-14 75.5001366-1.77635684e-14 78.2476776 1.10135135 80.2213279 3.30405405 82.1949781 5.50675676 83.1909617 8.54504505 83.2092787 12.4189189zM63.6536557 12.4189189C63.6536557 15.6891892 64.340541 18.1621622 65.7761311 19.8513514 67.2117213 21.5405405 69.2105574 22.3851351 71.9580984 22.3851351 74.7056393 22.3851351 76.7662951 21.5405405 78.1400656 19.8581081 79.5138361 18.1756757 80.2007213 15.6891892 80.2007213 12.4256757 80.2007213 9.16216216 79.5138361 6.71621622 78.1400656 5.03378378 76.7662951 3.35135135 74.7056393 2.52027027 72.0061803 2.52027027 69.3067213 2.52027027 67.1979836 3.36486486 65.8242131 5.05405405 64.4504426 6.74324324 63.6536557 9.18918919 63.6536557 12.4189189zM118.714377 14.4797297L118.714377 24.5202703 115.863803 24.5202703 115.863803.378378378 122.595279.378378378C125.603836.378378378 127.827055.945945946 129.264934 2.08108108 130.700525 3.21621622 131.421754 4.91891892 131.421754 7.2027027 131.421754 10.3918919 129.777809 12.5472973 126.489918 13.6689189L133.152705 24.5202703 129.780098 24.5202703 123.838541 14.4797297 118.714377 14.4797297zM118.714377 12.0675676L122.629623 12.0675676C124.639907 12.0675676 126.11671 11.6756757 127.060033 10.8918919 128.050429 9.98248979 128.568275 8.68042735 128.468148 7.35135135 128.468148 5.74774775 127.989617 4.59684685 127.032557 3.89864865 126.077787 3.22297297 124.539164 2.83783784 122.423557 2.83783784L118.714377 2.83783784 118.714377 12.0675676zM183.831098 12.2162162C183.831098 16.2027027 182.732082 19.25 180.534049 21.3581081 178.336016 23.4662162 175.171765 24.5202703 171.041295 24.5202703L164.241131 24.5202703 164.241131.378378378 171.796869.378378378C175.606792.378378378 178.571847 1.41891892 180.692033 3.5 182.812219 5.58108108 183.858574 8.48648649 183.831098 12.2162162zM180.808877 12.3175676C180.808877 9.16441441 180.005148 6.79279279 178.397836 5.2027027 176.790525 3.61261261 174.404743 2.81531532 171.240492 2.81081081L167.11918 2.81081081 167.11918 22.0945946 170.587951 22.0945946C173.994902 22.0945946 176.552404 21.2702703 178.260459 19.6216216 179.968514 17.972973 180.817962 15.5382883 180.808877 12.3175676L180.808877 12.3175676zM232.050443 7.39189189C232.176785 9.56546141 231.230679 11.6657485 229.508967 13.0337838 227.810071 14.3445946 225.385366 15.0022523 222.234852 15.0067568L219.343066 15.0067568 219.343066 24.5 216.458148 24.5 216.458148.378378378 222.818705.378378378C228.973197.378378378 232.050443 2.71621622 232.050443 7.39189189zM219.343066 12.5945946L221.912016 12.5945946C224.439754 12.5945946 226.273738 12.1959459 227.407098 11.3918919 228.540459 10.5878378 229.103705 9.2972973 229.103705 7.52702703 229.204965 6.15177976 228.608402 4.81624132 227.510131 3.95945946 226.445459 3.17567568 224.76259 2.79054054 222.543951 2.79054054L219.349934 2.79054054 219.343066 12.5945946zM267.164016 14.4797297L267.164016 24.5202703 264.334049 24.5202703 264.334049.378378378 271.065525.378378378C274.080951.378378378 276.29959.945945946 277.742049 2.08108108 279.184508 3.21621622 279.898869 4.91891892 279.898869 7.2027027 279.898869 10.3918919 278.252634 12.5472973 274.960164 13.6689189L281.622951 24.5202703 278.250344 24.5202703 272.308787 14.4797297 267.164016 14.4797297zM267.164016 12.0675676L271.072393 12.0675676C273.091836 12.0675676 274.568639 11.6756757 275.502803 10.8918919 276.494884 9.98318662 277.01516 8.6813635 276.917787 7.35135135 276.917787 5.74774775 276.439257 4.59684685 275.482197 3.89864865 274.520557 3.22297297 272.988803 2.83783784 270.873197 2.83783784L267.164016 2.83783784 267.164016 12.0675676z" class="woody-logo-white__woody-logo__baseline__wordpress__shape"/>
          <polygon points="326.394 24.52 312.718 24.52 312.718 .378 326.394 .378 326.394 2.872 315.569 2.872 315.569 10.649 325.742 10.649 325.742 13.128 315.569 13.128 315.569 22.007 326.394 22.007" class="woody-logo-white__woody-logo__baseline__wordpress__path"/>
          <path d="M372.861918 18.0945946C372.953372 20.0320514 372.072947 21.8904121 370.505902 23.0675676 368.939803 24.2567568 366.815038 24.8513514 364.131607 24.8513514 361.219213 24.8513514 358.979967 24.481982 357.413869 23.7432432L357.413869 21.0405405C358.475532 21.4750431 359.577374 21.8076683 360.704049 22.0337838 361.865052 22.2743468 363.048161 22.3966138 364.234639 22.3986486 366.130443 22.3986486 367.566033 22.0405405 368.527672 21.3310811 369.481068 20.6406706 370.022005 19.5283082 369.970131 18.3648649 369.993659 17.656041 369.817764 16.95459 369.461836 16.3378378 369.018496 15.7161389 368.42949 15.2085906 367.744623 14.8581081 366.573015 14.2506376 365.353225 13.737693 364.097262 13.3243243 361.816803 12.5202703 360.182016 11.5675676 359.206639 10.4662162 358.187262 9.26254379 357.662874 7.72710397 357.736705 6.16216216 357.672951 4.42848007 358.46644 2.77172308 359.866049 1.71621622 361.500093.550938617 363.489584-.0306860649 365.505377.0675675676 367.817836.0425260539 370.110279.491231252 372.236852 1.38513514L371.35077 3.83108108C369.484882 3.02673417 367.473723 2.59935811 365.436689 2.57432432 364.182595 2.50496139 362.939971 2.84199625 361.89923 3.53378378 361.053802 4.1601678 360.575996 5.15577665 360.621623 6.19594595 360.597715 6.90066827 360.761075 7.59933883 361.095574 8.22297297 361.489522 8.83615929 362.035538 9.34071307 362.682279 9.68918919 363.776658 10.2887205 364.926674 10.7842074 366.116705 11.1689189 368.685656 12.0698198 370.45553 13.0382883 371.426328 14.0743243 372.413713 15.1823262 372.928012 16.622586 372.861918 18.0945946L372.861918 18.0945946zM418.88323 18.0945946C418.973917 20.0303789 418.096657 21.8874741 416.534082 23.0675676 414.967984 24.2567568 412.840929 24.8513514 410.152918 24.8513514 407.240525 24.8513514 405.008148 24.4797297 403.442049 23.7432432L403.442049 21.0405405C404.503076 21.4767774 405.605092 21.8094552 406.73223 22.0337838 407.890872 22.2745985 409.07173 22.3968708 410.255951 22.3986486 412.156333 22.3986486 413.587344 22.0427928 414.548984 21.3310811 415.502379 20.6406706 416.043316 19.5283082 415.991443 18.3648649 416.018245 17.6557065 415.842132 16.9533884 415.483148 16.3378378 415.041744 15.7169625 414.455172 15.2094807 413.772803 14.8581081 412.59809 14.2521519 411.376144 13.7392664 410.118574 13.3243243 407.838115 12.5202703 406.203328 11.5675676 405.227951 10.4662162 404.208574 9.26254379 403.684186 7.72710397 403.758016 6.16216216 403.694263 4.42848007 404.487751 2.77172308 405.887361 1.71621622 407.521404.550938617 409.510895-.0306860649 411.526689.0675675676 413.839222.0417344831 416.131829.490471831 418.258164 1.38513514L417.372082 3.83108108C415.508318 3.02761782 413.499585 2.6002609 411.464869 2.57432432 410.208519 2.50396678 408.963401 2.84102372 407.920541 3.53378378 407.075113 4.1601678 406.597308 5.15577665 406.642934 6.19594595 406.619027 6.90066827 406.782387 7.59933883 407.116885 8.22297297 407.510833 8.83615929 408.05685 9.34071307 408.70359 9.68918919 409.797969 10.2887205 410.947985 10.7842074 412.138016 11.1689189 414.716126 12.0698198 416.486 13.0382883 417.447639 14.0743243 418.435024 15.1823262 418.949324 16.622586 418.88323 18.0945946L418.88323 18.0945946z" class="woody-logo-white__woody-logo__baseline__wordpress__path"/>
        </g>
      </g>
      <g class="woody-logo-white__woody-logo__logo">
        <g class="woody-logo-white__woody-logo__logo__oody" transform="translate(295.077)">
          <path d="M184.66 173.51C184.66 222.99 143.99 262.3 92.14 262.3 40.29 262.3-5.68434189e-14 223.33-5.68434189e-14 173.51-5.68434189e-14 123.69 40.33 84.72 92.18 84.72 144.03 84.72 184.66 124.03 184.66 173.51zM59.66 173.51C59.66 194.51 72.88 208.76 92.53 208.76 111.53 208.76 125.07 193.84 125.07 173.51 125.07 153.18 111.17 138.27 92.53 138.27 73.16 138.27 59.61 152.5 59.61 173.51L59.66 173.51zM390.36 173.51C390.36 222.99 349.7 262.3 297.85 262.3 246 262.3 205.67 223.3 205.67 173.51 205.67 123.72 246 84.72 297.85 84.72 349.7 84.72 390.36 124.03 390.36 173.51zM265.31 173.51C265.31 194.51 278.53 208.76 298.19 208.76 317.19 208.76 330.72 193.84 330.72 173.51 330.72 153.18 316.83 138.27 298.19 138.27 278.87 138.27 265.31 152.5 265.31 173.51L265.31 173.51zM594.37 29.48L594.37 233.16C594.37 249.76 582.51 262.3 566.25 262.3 554.016802 262.542826 543.09774 254.665444 539.47 242.98 528.63 255.52 513.04 262.3 492.7 262.3 445.26 262.3 411.37 225.7 411.37 173.85 411.37 122 445.26 84.72 492.7 84.72 511 84.72 525.58 90.14 536.08 100.31L536.08 29.48C536.08 12.54 548.28 0 565.23 0 581.83 0 594.37 12.54 594.37 29.48zM537.1 173.85C537.1 152.5 523.54 137.59 504.23 137.59 484.92 137.59 471 152.5 471 173.51 471 194.86 484.55 209.43 504.21 209.43 523.87 209.43 537.1 194.86 537.1 173.85z" class="woody-logo-white__woody-logo__logo__oody__shape"/>
          <path d="M801.1,112.85 C801.1,116.92 800.1,121.32 797.37,126.74 L726.88,267.38 C706.88,307.03 685.53,323.3 653,323.3 C643.51,323.3 635.38,321.61 629.61,318.22 C621.48,313.81 617.08,305.34 617.08,296.22 C617.08,281.65 628.6,271.14 643.17,271.14 L644.17,271.14 C657.38,271.14 665.86,267.07 671.96,253.86 L676.7,243.35 L622.84,126.74 C620.13,121.32 619.11,116.92 619.11,112.85 C619.309342,97.3975532 631.787553,84.9193417 647.24,84.7193384 C658.42,84.7193384 668.24,90.82 672.65,100.99 L709.59,184.36 L747.59,100.99 C752.099932,91.0212405 762.058795,84.6445896 773,84.7193384 C788.44073,84.9354511 800.901025,97.4090486 801.1,112.85 Z" class="woody-logo-white__woody-logo__logo__oody__path"/>
        </g>
        <g class="woody-logo-white__woody-logo__logo__w" transform="translate(0 77.003)">
          <path d="M66.6337477,5.91540048 L67.2379973,5.90592375 C82.8170181,5.66159067 95.6443808,18.0928112 95.8887139,33.671832 C95.8910265,33.8192887 95.8921829,33.9667613 95.8921829,34.1142361 L95.8921829,164.706527 C95.8921829,180.407982 83.1636383,193.136527 67.4621829,193.136527 L67.3855366,193.136527 C51.7101324,193.136527 38.9924046,180.448612 38.9556149,164.773251 L38.6496522,34.408629 C38.6131484,18.8550684 51.0820568,6.15930494 66.6337477,5.91540048 Z" class="woody-logo-white__woody-logo__logo__w__rectangle" transform="rotate(-26 67.238 99.297)"/>
          <rect width="56.87" height="187.68" x="94.191" y="4.363" class="woody-logo-white__woody-logo__logo__w__rectangle" opacity=".4" rx="28.43" transform="rotate(24.29 122.626 98.203)"/>
          <path d="M190.194748,182.54137 L190.185761,182.536987 C176.073386,175.653922 170.212872,158.633755 177.095937,144.52138 L234.443651,26.9411432 C241.326716,12.8287685 258.346883,6.96825514 272.459257,13.8513202 L272.468245,13.8557039 C286.58062,20.7387689 292.441133,37.7589357 285.558068,51.8713103 L228.210355,169.451547 C221.32729,183.563922 204.307123,189.424436 190.194748,182.54137 Z" class="woody-logo-white__woody-logo__logo__w__rectangle" opacity=".4"/>
          <path d="M247.53834 64.9732531L247.529352 64.9688694C233.416978 58.0858044 227.556464 41.0656376 234.439529 26.953263L234.443913 26.944275C241.326978 12.8319004 258.347145 6.97138697 272.459519 13.854452L272.468507 13.8588357C286.580882 20.7419007 292.441395 37.7620675 285.55833 51.8744422L285.553947 51.8834301C278.670882 65.9958048 261.650715 71.8563182 247.53834 64.9732531zM214.695749 183.760475L214.686635 183.764588C200.375149 190.223465 183.537444 183.857668 177.078567 169.546182L123.265069 50.3070116C116.806193 35.9955262 123.17199 19.1578209 137.483475 12.6989442L137.49259 12.6948307C151.804075 6.23595404 168.641781 12.6017512 175.100657 26.9132367L228.914155 146.152407C235.373032 160.463893 229.007235 177.301598 214.695749 183.760475z" class="woody-logo-white__woody-logo__logo__w__rectangle"/>
        </g>
      </g>
    </g>
  </g>
</svg>
